<svg width="18" height="23" viewBox="0 0 18 23" fill="none" xmlns="http://www.w3.org/2000/svg">
<path d="M0.566193 12.5859C0.700814 13.7698 1.80678 14.609 2.99836 14.609L8.94864 14.609C8.44296 15.5145 8.17153 18.0755 8.18357 19.1217C8.20353 20.8535 9.63764 22.2412 11.3694 22.2412L11.9992 22.2412C12.4211 22.2412 12.7625 21.8999 12.7625 21.478C12.7625 19.7131 13.4497 16.5275 14.7458 15.2313C15.6181 14.359 16.3639 14.0428 17.3418 13.5541L17.3418 2.10206C15.8446 1.60304 13.9437 0.871029 11.0463 0.871028L6.05365 0.871028C4.4086 0.871028 3.12739 2.39461 3.76485 4.00438C2.79366 4.26895 2.07744 5.15965 2.07744 6.21356C2.07744 6.51098 2.13482 6.79566 2.23842 7.05729C0.601791 7.5032 -0.000626406 9.52403 1.1353 10.7929C0.717978 11.2591 0.487838 11.8968 0.566193 12.5859Z" fill="white"/>
</svg>
