<svg width="18" height="22" viewBox="0 0 18 22" fill="none" xmlns="http://www.w3.org/2000/svg">
<path d="M17.3049 10.2852C17.1703 9.10125 16.0643 8.26209 14.8727 8.26209H8.92246C9.42814 7.35661 9.69956 4.79556 9.68753 3.74937C9.66757 2.01763 8.23346 0.629883 6.50167 0.629883H5.87188C5.45004 0.629883 5.10864 0.971234 5.10864 1.39312C5.10864 3.15802 4.42142 6.34363 3.12533 7.63976C2.25296 8.51213 1.50719 8.82825 0.529297 9.31696V20.769C2.02648 21.2681 3.92742 22.0001 6.82484 22.0001H11.8174C13.4625 22.0001 14.7437 20.4765 14.1062 18.8667C15.0774 18.6021 15.7937 17.7114 15.7937 16.6575C15.7937 16.3601 15.7363 16.0754 15.6327 15.8138C17.2693 15.3679 17.8717 13.3471 16.7358 12.0782C17.1531 11.612 17.3833 10.9743 17.3049 10.2852Z" fill="white"/>
</svg>
